<?xml version="1.0" encoding="utf-8"?>
<!-- Generator: Adobe Illustrator 15.0.2, SVG Export Plug-In . SVG Version: 6.00 Build 0)  -->
<!DOCTYPE svg PUBLIC "-//W3C//DTD SVG 1.1//EN" "http://www.w3.org/Graphics/SVG/1.1/DTD/svg11.dtd">
<svg version="1.1" id="Ebene_1" xmlns="http://www.w3.org/2000/svg" xmlns:xlink="http://www.w3.org/1999/xlink" x="0px" y="0px"
	 width="1638px" height="1940px" viewBox="0 0 1638 1940" enable-background="new 0 0 1638 1940" xml:space="preserve">
<g id="graph1" transform="scale(1 1) rotate(0) translate(4 1936)">
	<title>genomeannotation_dag</title>
	<title>p0</title>
	<title>p1</title>
	<ellipse fill="none" stroke="#000000" cx="622.537" cy="-1408.399" rx="82.23" ry="19.092"/>
	<text transform="matrix(1 0 0 1 559.8164 -1403.2998)" font-family="'Verdana'" font-size="15">runMakeBlastDB</text>
	<title>p4</title>
	<title>p1-&gt;p4</title>
	<title>p19</title>
	<title>p1-&gt;p19</title>
	<g>
		<g>
			<path fill="none" stroke="#000000" d="M582.784-1391.685c-15.562,20.993-36.021,48.568-51,68.77"/>
			<g>
				<polygon points="528.672,-1327.041 527.533,-1317.135 536.682,-1321.101 				"/>
			</g>
		</g>
	</g>
	<title>p50</title>
	<title>p1-&gt;p50</title>
	<title>p5</title>
	<ellipse fill="#79AAFF" cx="244.823" cy="-1302.414" rx="72.669" ry="19.092"/>
	<text transform="matrix(1 0 0 1 186.8662 -1297.314)" font-family="'Verdana'" font-size="15">runBlastProteins</text>
	<g id="edge14">
		<title>p4-&gt;p5</title>
		<path fill="none" stroke="#000000" d="M553.36-1397.834c-25.546,9.563-145.55,54.474-227.634,85.185"/>
		<polygon stroke="#000000" points="327.02,-1309.389 316.453,-1308.619 324.232,-1315.809 		"/>
	</g>
	<title>p20</title>
	<ellipse fill="#B0D377" cx="487.513" cy="-1301.142" rx="63.848" ry="19.092"/>
	<text transform="matrix(1 0 0 1 440.0093 -1296.042)" font-family="'Verdana'" font-size="15">runBlastEST</text>
	<title>p51</title>
	<ellipse fill="#D9B7D4" cx="808.61" cy="-1297.314" rx="73.039" ry="19.092"/>
	<text transform="matrix(1 0 0 1 754.356 -1292.2144)" font-family="'Verdana'" font-size="15">runBlastTrinity</text>
	<title>p2</title>
	<ellipse stroke="#000000" cx="250.318" cy="-1460.414" rx="3.6" ry="3.6"/>
	<title>p3</title>
	<ellipse fill="none" stroke="#000000" cx="250.318" cy="-1381.414" rx="3" ry="3.5"/>
	<g id="edge10">
		<title>p2-&gt;p3</title>
		<path fill="none" stroke="#000000" d="M250.318-1456.603c0,10.97,0,43.029,0,61.55"/>
		<polygon stroke="#000000" points="253.818,-1395.003 250.318,-1385.003 246.818,-1395.003 		"/>
	</g>
	<title>p3-&gt;p5</title>
	<path fill="none" stroke="#000000" d="M250.318-1377.603c0,8.22,0,28.27,0,45.6"/>
	<polygon stroke="#000000" points="253.818,-1331.694 250.318,-1321.694 246.818,-1331.694 	"/>
	<title>p6</title>
	<ellipse fill="none" stroke="#000000" cx="231.735" cy="-1207.478" rx="3" ry="3.5"/>
	<title>p5-&gt;p6</title>
	<path fill="none" stroke="#000000" d="M246.675-1283.394c-3.504,18.301-8.71,45.49-11.797,61.61"/>
	<polygon stroke="#000000" points="237.731,-1220.178 232.413,-1211.018 230.856,-1221.498 	"/>
	<title>p7</title>
	<ellipse fill="#79AAFF" cx="219.068" cy="-1111" rx="104.151" ry="19.092"/>
	<text transform="matrix(1 0 0 1 133.6421 -1105.9004)" font-family="'Verdana'" font-size="15">Blast2QueryTargetProts</text>
	<g id="edge18">
		<title>p6-&gt;p7</title>
		<path fill="none" stroke="#000000" d="M230.559-1203.908c-3.3,10-12.878,39.05-20.299,61.55"/>
		<polygon stroke="#000000" points="213.488,-1140.968 207.032,-1132.568 206.841,-1143.167 		"/>
	</g>
	<title>p8</title>
	<title>p7-&gt;p8</title>
	<title>p9</title>
	<ellipse fill="#79AAFF" cx="192.068" cy="-923" rx="85.769" ry="19.092"/>
	<text transform="matrix(1 0 0 1 122.6338 -917.9004)" font-family="'Verdana'" font-size="15">runExonerateProts</text>
	<title>p8-&gt;p9</title>
	<title>p10</title>
	<ellipse fill="#79AAFF" cx="192.772" cy="-829" rx="101.665" ry="19.092"/>
	<text transform="matrix(1 0 0 1 108.6338 -823.9004)" font-family="'Verdana'" font-size="15">Exonerate2HintsProtein</text>
	<title>p9-&gt;p10</title>
	<path fill="none" stroke="#000000" d="M192.068-903.979c0,13.037,0,30.591,0,45.435"/>
	<polygon stroke="#000000" points="195.568,-858.317 192.068,-848.317 188.568,-858.317 	"/>
	<title>p11</title>
	<title>p10-&gt;p11</title>
	<title>p60</title>
	<title>p10-&gt;p60</title>
	<title>p66</title>
	<ellipse fill="#E38501" cx="1228.203" cy="-454.71" rx="63.139" ry="19.092"/>
	<text transform="matrix(1 0 0 1 1180.0859 -450.6104)" font-family="'Verdana'" font-size="15">runAugustus</text>
	<title>p13</title>
	<title>p14</title>
	<title>p13-&gt;p14</title>
	<title>p15</title>
	<title>p14-&gt;p15</title>
	<title>p61</title>
	<title>p14-&gt;p61</title>
	<title>p17</title>
	<ellipse stroke="#000000" cx="444.513" cy="-1459.142" rx="3.6" ry="3.6"/>
	<title>p18</title>
	<ellipse fill="none" stroke="#000000" cx="449.513" cy="-1380.142" rx="3" ry="3.5"/>
	<g id="edge40">
		<title>p17-&gt;p18</title>
		<path fill="none" stroke="#000000" d="M444.754-1455.331c0.694,10.97,2.724,43.029,3.896,61.55"/>
		<polygon stroke="#000000" points="452.146,-1393.932 449.286,-1383.731 445.161,-1393.491 		"/>
	</g>
	<title>p18-&gt;p20</title>
	<g>
		<g>
			<path fill="none" stroke="#000000" d="M451.146-1376.752c4.388,8.556,15.14,29.498,25.077,48.86"/>
			<g>
				<polygon points="471.146,-1326.924 479.524,-1321.518 480.018,-1331.477 				"/>
			</g>
		</g>
	</g>
	<title>p21</title>
	<ellipse fill="none" stroke="#000000" cx="487.513" cy="-1206.055" rx="3" ry="3.5"/>
	<title>p20-&gt;p21</title>
	<path fill="none" stroke="#000000" d="M487.513-1281.035c0,18.12,0,44.961,0,61.131"/>
	<polygon stroke="#000000" points="491.013,-1219.595 487.513,-1209.595 484.013,-1219.595 	"/>
	<title>p22</title>
	<ellipse fill="#B0D377" cx="487.513" cy="-1112.055" rx="101.823" ry="19.092"/>
	<text transform="matrix(1 0 0 1 404.0347 -1106.9551)" font-family="'Verdana'" font-size="15">Blast2QueryTargetEST</text>
	<g id="edge48">
		<title>p21-&gt;p22</title>
		<path fill="none" stroke="#000000" d="M487.513-1202.484c0,9.96,0,38.79,0,61.25"/>
		<polygon stroke="#000000" points="491.013,-1141.145 487.513,-1131.145 484.013,-1141.145 		"/>
	</g>
	<title>p23</title>
	<ellipse fill="none" stroke="#000000" cx="487.513" cy="-1018.055" rx="3" ry="3.5"/>
	<title>p22-&gt;p23</title>
	<path fill="none" stroke="#000000" d="M487.513-1093.035c0,18.12,0,44.961,0,61.131"/>
	<polygon stroke="#000000" points="491.013,-1031.595 487.513,-1021.595 484.013,-1031.595 	"/>
	<title>p24</title>
	<ellipse fill="#B0D377" cx="487.513" cy="-924.055" rx="82.939" ry="19.092"/>
	<text transform="matrix(1 0 0 1 422.0264 -918.9551)" font-family="'Verdana'" font-size="15">runExonerateEST</text>
	<title>p23-&gt;p24</title>
	<path fill="none" stroke="#000000" d="M487.513-1014.484c0,9.959,0,38.788,0,61.246"/>
	<polygon stroke="#000000" points="491.013,-953.147 487.513,-943.147 484.013,-953.147 	"/>
	<title>p25</title>
	<ellipse fill="#B0D377" cx="487.513" cy="-830.055" rx="92.13" ry="19.092"/>
	<text transform="matrix(1 0 0 1 413.0264 -824.9551)" font-family="'Verdana'" font-size="15">Exonerate2HintsEST</text>
	<title>p24-&gt;p25</title>
	<path fill="none" stroke="#000000" d="M487.513-905.033c0,13.037,0,30.591,0,45.435"/>
	<polygon stroke="#000000" points="491.013,-859.372 487.513,-849.372 484.013,-859.372 	"/>
	<title>p26</title>
	<title>p25-&gt;p26</title>
	<title>p62</title>
	<title>p25-&gt;p62</title>
	<title>p28</title>
	<title>p29</title>
	<title>p30</title>
	<text transform="matrix(1 0 0 1 515.916 -1717.8589)" font-family="'Verdana'" font-size="15">runRepeatMasker</text>
	<title>p29-&gt;p30</title>
	<title>p31</title>
	<title>p30-&gt;p31</title>
	<title>p32</title>
	<title>p33</title>
	<title>p32-&gt;p33</title>
	<title>p34</title>
	<title>p33-&gt;p34</title>
	<title>p36</title>
	<title>p34-&gt;p36</title>
	<title>p34-&gt;p35</title>
	<title>p63</title>
	<title>p34-&gt;p63</title>
	<title>p38</title>
	<ellipse stroke="#000000" cx="1058.551" cy="-1397.253" rx="3.6" ry="3.6"/>
	<title>p39</title>
	<title>p40</title>
	<title>p41</title>
	<ellipse fill="#C593BE" cx="1067.564" cy="-1309.566" rx="49.299" ry="19.092"/>
	<text transform="matrix(1 0 0 1 1035.2754 -1304.4668)" font-family="'Verdana'" font-size="15">runFastp</text>
	<title>p40-&gt;p41</title>
	<title>p45</title>
	<ellipse fill="#C593BE" cx="1062.632" cy="-1191.886" rx="51.828" ry="19.092"/>
	<text transform="matrix(1 0 0 1 1026.6875 -1186.7866)" font-family="'Verdana'" font-size="15">runHisat2</text>
	<title>p41-&gt;p45</title>
	<title>p46</title>
	<ellipse fill="#C593BE" cx="1064.048" cy="-703.053" rx="56.777" ry="19.092"/>
	<text transform="matrix(1 0 0 1 1019.6035 -697.9531)" font-family="'Verdana'" font-size="15">Hisat2Hints</text>
	<title>p45-&gt;p46</title>
	<title>p47</title>
	<title>p45-&gt;p47</title>
	<title>p42</title>
	<title>p43</title>
	<ellipse fill="#C593BE" cx="917.647" cy="-1607.777" rx="82.939" ry="19.092"/>
	<text transform="matrix(1 0 0 1 853.54 -1602.6772)" font-family="'Verdana'" font-size="15">runMakeHisatDB</text>
	<title>p42-&gt;p43</title>
	<title>p44</title>
	<title>p43-&gt;p44</title>
	<g id="edge94">
		<title>p44-&gt;p45</title>
		<path fill="none" stroke="#000000" d="M458.461-1804.958c1.254,9.67,5.721,36.08,18.58,53.3c4.197,5.62,9.502,10.7,15.125,15.17"
			/>
		<polygon stroke="#000000" points="490.396,-1733.448 500.539,-1730.388 494.52,-1739.108 		"/>
	</g>
	<title>p64</title>
	<title>p46-&gt;p64</title>
	<title>p48</title>
	<ellipse fill="#D9B7D4" cx="812.025" cy="-1455.542" rx="53.948" ry="19.092"/>
	<text transform="matrix(1 0 0 1 775.1606 -1450.4424)" font-family="'Verdana'" font-size="15">runTrinity</text>
	<g id="edge102">
		<title>p47-&gt;p48</title>
		<path fill="none" stroke="#000000" d="M644.503-1389.725c13.29,9.14,68.609,47.2,105.06,72.27"/>
		<polygon stroke="#000000" points="751.68,-1320.245 757.935,-1311.694 747.712,-1314.475 		"/>
	</g>
	<title>p49</title>
	<ellipse fill="none" stroke="#000000" cx="812.025" cy="-1377.562" rx="3" ry="3.5"/>
	<title>p48-&gt;p49</title>
	<path fill="none" stroke="#000000" d="M812.025-1437.441c0,14.25,0,33.37,0,46.13"/>
	<polygon stroke="#000000" points="815.525,-1391.081 812.025,-1381.081 808.525,-1391.081 	"/>
	<title>p55</title>
	<title>p48-&gt;p55</title>
	<title>p49-&gt;p51</title>
	<path fill="none" stroke="#000000" d="M812.025-1373.751c0,8.22,0,28.27,0,45.6"/>
	<polygon stroke="#000000" points="815.525,-1327.842 812.025,-1317.842 808.525,-1327.842 	"/>
	<title>p56</title>
	<title>p55-&gt;p56</title>
	<title>p52</title>
	<title>p51-&gt;p52</title>
	<title>p53</title>
	<ellipse fill="#D9B7D4" cx="812.024" cy="-1111" rx="111.222" ry="19.092"/>
	<text transform="matrix(1 0 0 1 721.7959 -1105.9004)" font-family="'Verdana'" font-size="15">BlastTrinity2QueryTarget</text>
	<title>p54</title>
	<title>p53-&gt;p54</title>
	<title>p54-&gt;p55</title>
	<title>p56-&gt;p57</title>
	<title>p58</title>
	<title>p56-&gt;p58</title>
	<title>p65</title>
	<title>p56-&gt;p65</title>
	<title>p67</title>
	<title>p66-&gt;p67</title>
	<title>p69</title>
	<title>p66-&gt;p69</title>
	<title>p72</title>
	<ellipse fill="#E38501" cx="1229.744" cy="-207.239" rx="84.145" ry="19.092"/>
	<text transform="matrix(1 0 0 1 1162.8506 -202.1387)" font-family="'Verdana'" font-size="15">Augustus2Proteins</text>
	<title>p66-&gt;p72</title>
	<path fill="none" d="M1228.203-284.97c0,13.037,0,30.591,0,45.435"/>
	<polygon stroke="#000000" points="1231.703,-239.309 1228.203,-229.309 1224.703,-239.309 	"/>
	<title>p70</title>
	<title>p69-&gt;p70</title>
	<title>p81</title>
	<title>p69-&gt;p81</title>
	<title>p85</title>
	<title>p69-&gt;p85</title>
	<title>p86</title>
	<title>p69-&gt;p86</title>
	<title>p73</title>
	<title>p72-&gt;p73</title>
	<title>p77</title>
	<title>p72-&gt;p77</title>
	<title>p82</title>
	<title>p72-&gt;p82</title>
	<title>p81-&gt;p86</title>
	<title>p85-&gt;p86</title>
	<title>p87</title>
	<title>p86-&gt;p87</title>
	<title>p79</title>
	<title>p77-&gt;p79</title>
	<title>p83</title>
	<title>p82-&gt;p83</title>
	<title>p75</title>
	<title>p76</title>
	<title>p75-&gt;p76</title>
	<title>p78</title>
	<title>p76-&gt;p78</title>
	<title>p80</title>
	<title>p79-&gt;p80</title>
	<title>p80-&gt;p81</title>
	<title>p84</title>
	<title>p83-&gt;p84</title>
	<title>p84-&gt;p85</title>
	<text transform="matrix(1 0 0 1 310.3477 -686.748)" font-family="'Arial-ItalicMT'" font-size="17">ESTs.exonerate.hints.gff</text>
	<text transform="matrix(1 0 0 1 100.752 -641.7051)" font-family="'Arial-ItalicMT'" font-size="17">proteins.exonerate.hints.gff</text>
	<text transform="matrix(1 0 0 1 1147.9355 -100.7471)" font-family="'Arial-ItalicMT'" font-size="17">augustus.proteins.fa</text>
	<text transform="matrix(1 0 0 1 1326.9004 -135.8496)" font-family="'Arial-ItalicMT'" font-size="17">augustus.merged.out.gff</text>
	<text transform="matrix(1 0 0 1 182.9819 -1472.5054)" fill="#1D0316" font-family="'CourierNewPS-BoldMT'" font-size="21">--proteins</text>
	<text transform="matrix(1 0 0 1 396.3472 -1471.2334)" fill="#1D0316" font-family="'CourierNewPS-BoldMT'" font-size="21">--ESTs</text>
	<text transform="matrix(1 0 0 1 1008.4004 -1411.4282)" fill="#1D0316" font-family="'CourierNewPS-BoldMT'" font-size="21">--reads</text>
	<text transform="matrix(1 0 0 1 520.165 -1898.5449)" fill="#1D0316" font-family="'CourierNewPS-BoldMT'" font-size="21">--genome</text>
	<ellipse fill="#E38501" cx="1247.05" cy="-1614.655" rx="17.307" ry="16.5"/>
	<ellipse fill="#D9B7D4" cx="1247.05" cy="-1673.456" rx="17.307" ry="16.5"/>
	<text transform="matrix(1 0 0 1 1277.7412 -1669.4014)" fill="#1A171B" font-family="'CourierNewPS-BoldMT'" font-size="21">--trinity true</text>
	<text transform="matrix(1 0 0 1 1277.7402 -1608.4185)" fill="#1A171B" font-family="'CourierNewPS-BoldMT'" font-size="21">--augustus true</text>
	<text transform="matrix(0 1 -1 0 261.0859 -1460.4136)" fill="#697989" font-family="'CourierNewPS-BoldMT'" font-size="17">--nblast</text>
	
		<text transform="matrix(-0.0043 1 -1 -0.0043 824.6484 -1427.4941)" fill="#697989" font-family="'CourierNewPS-BoldMT'" font-size="17">--nblast</text>
	<text transform="matrix(0 1 -1 0 497.8115 -1084.9141)" fill="#697989" font-family="'CourierNewPS-BoldMT'" font-size="17">--nexonerate</text>
	<ellipse fill="#79AAFF" cx="1247.05" cy="-1849.664" rx="17.307" ry="16.5"/>
	<text transform="matrix(1 0 0 1 1277.7412 -1844.9912)" fill="#1A171B" font-family="'CourierNewPS-BoldMT'" font-size="21">--proteins</text>
	<ellipse fill="#B0D377" cx="1247.05" cy="-1792.97" rx="17.307" ry="16.5"/>
	<ellipse fill="#B26FA9" cx="1247.05" cy="-1730.835" rx="17.307" ry="16.5"/>
	<text transform="matrix(1 0 0 1 1277.7412 -1787.8706)" fill="#1A171B" font-family="'CourierNewPS-BoldMT'" font-size="21">--ESTs</text>
	<text transform="matrix(1 0 0 1 1277.7412 -1726.7813)" fill="#1A171B" font-family="'CourierNewPS-BoldMT'" font-size="21">--reads</text>
	<path fill="none" stroke="#000000" d="M1228.203-286.122c0,15.75,0,37.637,0,51.739"/>
	<text transform="matrix(1 0 0 1 404.0347 -1825.1348)" fill="#1D0316" font-family="'CourierNewPS-BoldMT'" font-size="21">--rm_lib</text>
	<ellipse stroke="#000000" cx="455.963" cy="-1807.87" rx="3.6" ry="3.6"/>
	<ellipse stroke="#000000" cx="577.013" cy="-1883.37" rx="3.6" ry="3.6"/>
	<ellipse fill="none" stroke="#000000" cx="577.013" cy="-1804.37" rx="3" ry="3.5"/>
	<g id="edge10_1_">
		<title>p2-&gt;p3</title>
		<path fill="none" stroke="#000000" d="M577.013-1879.56c0,10.97,0,43.029,0,61.55"/>
		<polygon stroke="#000000" points="580.513,-1817.96 577.013,-1807.96 573.513,-1817.96 		"/>
	</g>
	<path fill="none" stroke="#000000" d="M577.013-1800.56c0,8.22,0,28.27,0,45.6"/>
	<polygon stroke="#000000" points="580.513,-1754.65 577.013,-1744.65 573.513,-1754.65 	"/>
	<ellipse fill="none" stroke="#000000" cx="577.013" cy="-1643.266" rx="3" ry="3.5"/>
	<path fill="none" stroke="#000000" d="M577.013-1703.146c0,14.25,0,33.37,0,46.13"/>
	<polygon stroke="#000000" points="580.513,-1656.785 577.013,-1646.785 573.513,-1656.785 	"/>
	<path fill="none" stroke="#000000" d="M577.013-1639.455c0,8.22,0,28.27,0,45.6"/>
	<polygon stroke="#000000" points="580.513,-1593.546 577.013,-1583.546 573.513,-1593.546 	"/>
	<text transform="matrix(1 0 0 1 500.5156 -1556.5273)" font-family="'Verdana'" font-size="15">runMergeRMGenome</text>
	
		<text transform="matrix(0.052 0.9986 -0.9986 0.052 455.9634 -1461.0488)" fill="#697989" font-family="'CourierNewPS-BoldMT'" font-size="17">--nblast</text>
	<g>
		<g>
			<path fill="none" stroke="#000000" d="M589.336-1541.967c6.195,32.873,14.377,76.251,20.253,107.426"/>
			<g>
				<polygon points="604.446,-1435.059 610.945,-1427.496 614.245,-1436.906 				"/>
			</g>
		</g>
	</g>
	<ellipse fill="none" stroke="#000000" cx="192.068" cy="-734.145" rx="3" ry="3.5"/>
	<g id="edge10_2_">
		<title>p2-&gt;p3</title>
		<path fill="none" stroke="#000000" d="M192.068-809.334c0,10.971,0,43.029,0,61.551"/>
		<polygon stroke="#000000" points="195.568,-747.734 192.068,-737.734 188.568,-747.734 		"/>
	</g>
	<g>
		<g>
			<path fill="none" stroke="#7E7573" d="M190.78-731.227c-0.372,1.672-0.81,3.638-1.303,5.854"/>
			<path fill="none" stroke="#7E7573" stroke-dasharray="13.2425,1.1035" d="M189.237-724.298
				c-2.947,13.238-7.695,34.565-12.351,55.477"/>
			<path fill="none" stroke="#7E7573" d="M176.765-668.276c-0.436,1.957-0.871,3.911-1.303,5.853"/>
			<g>
				<polygon fill="#7E7573" points="170.939,-664.923 173.929,-655.411 180.673,-662.757 				"/>
			</g>
		</g>
	</g>
	<ellipse fill="none" stroke="#000000" cx="487.513" cy="-736.05" rx="3" ry="3.5"/>
	<g id="edge10_3_">
		<title>p2-&gt;p3</title>
		<path fill="none" stroke="#000000" d="M487.513-811.239c0,10.971,0,43.029,0,61.551"/>
		<polygon stroke="#000000" points="491.013,-749.64 487.513,-739.64 484.013,-749.64 		"/>
	</g>
	<ellipse fill="none" stroke="#000000" cx="192.169" cy="-1017.433" rx="3" ry="3.5"/>
	<path fill="none" stroke="#000000" d="M192.169-1092.414c0,18.12,0,44.961,0,61.131"/>
	<polygon stroke="#000000" points="195.669,-1030.973 192.169,-1020.973 188.669,-1030.973 	"/>
	<path fill="none" stroke="#000000" d="M192.169-1013.863c0,9.959,0,38.788,0,61.246"/>
	<polygon stroke="#000000" points="195.669,-952.525 192.169,-942.525 188.669,-952.525 	"/>
	<text transform="matrix(0 1 -1 0 202.4678 -1084.2925)" fill="#697989" font-family="'CourierNewPS-BoldMT'" font-size="17">--nexonerate</text>
	<ellipse fill="none" stroke="#000000" cx="578.025" cy="-1561.627" rx="93.513" ry="19.092"/>
	<ellipse fill="none" stroke="#000000" cx="577.013" cy="-1723.559" rx="82.23" ry="19.092"/>
	<ellipse fill="#C593BE" cx="1062.633" cy="-1042.72" rx="75.79" ry="19.092"/>
	<text transform="matrix(1 0 0 1 999.1758 -1037.6201)" font-family="'Verdana'" font-size="15">mergeHisatBams</text>
	<g>
		<g>
			<path fill="none" stroke="#000000" d="M1062.633-1023.628c0,53.215,0,181.424,0,294.311"/>
			<g>
				<polygon points="1057.675,-730.779 1062.66,-722.145 1067.646,-730.779 				"/>
			</g>
		</g>
	</g>
	<ellipse fill="none" stroke="#000000" cx="812.025" cy="-1204.449" rx="3" ry="3.5"/>
	<path fill="none" stroke="#000000" d="M812.025-1279.43c0,18.12,0,44.961,0,61.131"/>
	<polygon stroke="#000000" points="815.525,-1217.989 812.025,-1207.989 808.525,-1217.989 	"/>
	<g id="edge48_1_">
		<title>p21-&gt;p22</title>
		<path fill="none" stroke="#000000" d="M812.025-1200.879c0,9.96,0,38.79,0,61.25"/>
		<polygon stroke="#000000" points="815.525,-1139.539 812.025,-1129.539 808.525,-1139.539 		"/>
	</g>
	<ellipse fill="none" stroke="#000000" cx="812.126" cy="-1017.396" rx="3" ry="3.5"/>
	<path fill="none" stroke="#000000" d="M812.126-1092.377c0,18.12,0,44.961,0,61.131"/>
	<polygon stroke="#000000" points="815.626,-1030.937 812.126,-1020.937 808.626,-1030.937 	"/>
	<path fill="none" stroke="#000000" d="M812.126-1013.826c0,9.959,0,38.788,0,61.246"/>
	<polygon stroke="#000000" points="815.626,-952.489 812.126,-942.489 808.626,-952.489 	"/>
	<text transform="matrix(0 1 -1 0 822.4248 -1084.2559)" fill="#697989" font-family="'CourierNewPS-BoldMT'" font-size="17">--nexonerate</text>
	<ellipse fill="#D9B7D4" cx="812.024" cy="-923" rx="92.13" ry="19.092"/>
	<text transform="matrix(1 0 0 1 739.7876 -917.9004)" font-family="'Verdana'" font-size="15">runExonerateTrinity</text>
	<path fill="none" stroke="#000000" d="M812.126-903.979c0,13.037,0,30.591,0,45.435"/>
	<polygon stroke="#000000" points="815.626,-858.317 812.126,-848.317 808.626,-858.317 	"/>
	<ellipse fill="#D9B7D4" cx="812.023" cy="-830.055" rx="105.624" ry="19.092"/>
	<text transform="matrix(1 0 0 1 729.7896 -824.9551)" font-family="'Verdana'" font-size="15">Exonerate2HintsTrinity</text>
	<text transform="matrix(1 0 0 1 774.1602 -677.7314)" font-family="'Arial-ItalicMT'" font-size="17">RNAseq.trinity.hints.gff</text>
	<text transform="matrix(1 0 0 1 1018.6035 -623.3174)" font-family="'Arial-ItalicMT'" font-size="17">rnaseq.hisat.hints.gff</text>
	<ellipse fill="none" stroke="#000000" cx="610.918" cy="-588.858" rx="82.23" ry="19.092"/>
	<text transform="matrix(1 0 0 1 548.1973 -583.7588)" font-family="'Verdana'" font-size="15">runMergeAllHints</text>
	<ellipse fill="none" stroke="#000000" cx="610.918" cy="-492.894" rx="70" ry="19.092"/>
	<text transform="matrix(1 0 0 1 557.0928 -487.7939)" font-family="'Verdana'" font-size="15">runHintsToBed</text>
	<path fill="none" stroke="#000000" d="M610.918-568.929c0,13.037,0,30.591,0,45.435"/>
	<polygon stroke="#000000" points="614.418,-523.268 610.918,-513.268 607.418,-523.268 	"/>
	<g>
		<g>
			<path fill="none" stroke="#7E7573" d="M484.513-734.05c-1.321,0.903-2.999,2.052-4.95,3.387"/>
			<path fill="none" stroke="#7E7573" stroke-dasharray="12.5295,1.0441" d="M478.703-730.075
				c-5.814,3.978-13.784,9.429-21.975,15.031"/>
			<path fill="none" stroke="#7E7573" d="M456.294-714.747c-1.649,1.128-3.306,2.261-4.954,3.389"/>
			<g>
				<polygon fill="#7E7573" points="449.743,-716.273 445.43,-707.283 455.373,-708.043 				"/>
			</g>
		</g>
	</g>
	<g>
		<g>
			<path fill="none" stroke="#7E7573" d="M1070.559-683.961c0.758,1.413,1.717,3.204,2.832,5.287"/>
			<path fill="none" stroke="#7E7573" stroke-dasharray="12.7812,1.0651" d="M1073.893-677.737
				c3.386,6.32,8.043,15.015,12.824,23.94"/>
			<path fill="none" stroke="#7E7573" d="M1086.97-653.324c0.943,1.762,1.892,3.531,2.834,5.291"/>
			<g>
				<polygon fill="#7E7573" points="1084.745,-646.976 1093.218,-641.718 1093.535,-651.685 				"/>
			</g>
		</g>
	</g>
	<g>
		<g>
			<path fill="none" stroke="#7E7573" d="M813.626-733.161c0.942,1.317,2.122,2.968,3.488,4.878"/>
			<path fill="none" stroke="#7E7573" stroke-dasharray="14.2751,1.1896" d="M817.805-727.318
				c4.603,6.436,11.058,15.462,17.646,24.674"/>
			<path fill="none" stroke="#7E7573" d="M835.8-702.155c1.163,1.627,2.33,3.258,3.49,4.881"/>
			<g>
				<polygon fill="#7E7573" points="834.41,-695.575 843.488,-691.451 842.521,-701.376 				"/>
			</g>
		</g>
	</g>
	<ellipse fill="none" stroke="#000000" cx="812.126" cy="-736.05" rx="3" ry="3.5"/>
	<g id="edge10_5_">
		<title>p2-&gt;p3</title>
		<path fill="none" stroke="#000000" d="M812.126-811.239c0,10.971,0,43.029,0,61.551"/>
		<polygon stroke="#000000" points="815.626,-749.64 812.126,-739.64 808.626,-749.64 		"/>
	</g>
	<ellipse fill="#E38501" cx="1228.204" cy="-296.136" rx="99.696" ry="19.092"/>
	<text transform="matrix(1 0 0 1 1145.7578 -291.0352)" font-family="'Verdana'" font-size="15">runMergeAugustusGff</text>
	<ellipse fill="none" stroke="#000000" cx="1228.203" cy="-374.947" rx="3" ry="3.5"/>
	<path fill="none" stroke="#000000" d="M1228.203-434.827c0,14.25,0,33.37,0,46.13"/>
	<polygon stroke="#000000" points="1231.703,-388.467 1228.203,-378.467 1224.703,-388.467 	"/>
	<path fill="none" stroke="#000000" d="M1228.203-371.137c0,8.22,0,28.27,0,45.6"/>
	<polygon stroke="#000000" points="1231.703,-325.228 1228.203,-315.228 1224.703,-325.228 	"/>
	<g>
		<g>
			<line fill="none" stroke="#000000" x1="194.068" y1="-732.645" x2="524.507" y2="-596.238"/>
			<g>
				<polygon points="521.267,-592.212 531.15,-593.525 525.071,-601.43 				"/>
			</g>
		</g>
	</g>
	<g>
		<g>
			<line fill="none" stroke="#000000" x1="489.513" y1="-732.55" x2="575.48" y2="-611.796"/>
			<g>
				<polygon points="570.595,-610.109 579.665,-605.966 578.719,-615.893 				"/>
			</g>
		</g>
	</g>
	<g>
		<g>
			<line fill="none" stroke="#000000" x1="810.126" y1="-734.05" x2="653.221" y2="-610.393"/>
			<g>
				<polygon points="651.298,-615.189 647.602,-605.929 657.471,-607.357 				"/>
			</g>
		</g>
	</g>
	<g>
		<g>
			<line fill="none" stroke="#000000" x1="1047.91" y1="-684.748" x2="700.076" y2="-590.73"/>
			<g>
				<polygon points="700.191,-595.897 693.156,-588.832 702.793,-586.271 				"/>
			</g>
		</g>
	</g>
	<g>
		<g>
			<path fill="none" stroke="#7E7573" d="M1293.697-281.68c1.07,1.481,2.244,3.105,3.514,4.86"/>
			<path fill="none" stroke="#7E7573" stroke-dasharray="12.0882,1.0073" d="M1297.799-276.005
				c16.329,22.59,47.463,65.667,76.418,105.729"/>
			<path fill="none" stroke="#7E7573" d="M1374.516-169.862c1.175,1.625,2.346,3.246,3.513,4.859"/>
			<g>
				<polygon fill="#7E7573" points="1373.156,-163.28 1382.255,-159.201 1381.237,-169.121 				"/>
			</g>
		</g>
	</g>
	<g>
		<g>
			<path fill="none" stroke="#7E7573" d="M1228.411-188.987c-0.015,1.701-0.032,3.717-0.052,5.998"/>
			<path fill="none" stroke="#7E7573" stroke-dasharray="12.2526,1.0211" d="M1228.351-181.971
				c-0.11,12.665-0.285,32.771-0.456,52.584"/>
			<path fill="none" stroke="#7E7573" d="M1227.89-128.87c-0.018,2.005-0.035,4.006-0.052,5.996"/>
			<g>
				<polygon fill="#7E7573" points="1222.893,-124.374 1227.803,-115.696 1232.863,-124.288 				"/>
			</g>
		</g>
	</g>
	<g>
		<g>
			<line fill="none" stroke="#000000" x1="1010.806" y1="-1191.886" x2="861.185" y2="-1439.109"/>
			<g>
				<polygon points="866.182,-1440.429 857.445,-1445.235 857.65,-1435.266 				"/>
			</g>
		</g>
	</g>
	<g>
		<g>
			<line fill="none" stroke="#000000" x1="1062.632" y1="-1172.794" x2="1062.633" y2="-1068.988"/>
			<g>
				<polygon points="1057.675,-1070.447 1062.66,-1061.812 1067.646,-1070.447 				"/>
			</g>
		</g>
	</g>
	<line fill="none" stroke="#000000" x1="578.612" y1="-1881.37" x2="879.648" y2="-1623.981"/>
	<g>
		<g>
			<line fill="none" stroke="#000000" x1="917.647" y1="-1588.686" x2="1024.723" y2="-1212.541"/>
			<g>
				<polygon points="1019.555,-1212.586 1026.714,-1205.646 1029.146,-1215.316 				"/>
			</g>
		</g>
	</g>
	
		<text transform="matrix(-0.0145 -0.9999 0.9999 -0.0145 564.8164 -1752.6763)" fill="#697989" font-family="'CourierNewPS-BoldMT'" font-size="17">--nrepeats</text>
	<g>
		<g>
			<line fill="none" stroke="#000000" x1="1058.551" y1="-1400.854" x2="1058.552" y2="-1335.51"/>
			<g>
				<polygon points="1053.594,-1336.969 1058.579,-1328.334 1063.565,-1336.969 				"/>
			</g>
		</g>
	</g>
	<g>
		<g>
			<line fill="none" stroke="#000000" x1="1062.15" y1="-1292.214" x2="1062.151" y2="-1218.154"/>
			<g>
				<polygon points="1057.193,-1219.613 1062.179,-1210.978 1067.165,-1219.613 				"/>
			</g>
		</g>
	</g>
</g>
<g>
	<g>
		<path fill="none" stroke="#1A171B" d="M1232.203,1455.021c-0.024-1071.13-6.119-1080.648-556.665-1080.648"/>
		<g>
			<polygon fill="#1A171B" points="1237.13,1453.545 1232.176,1462.198 1227.158,1453.581 			"/>
		</g>
	</g>
</g>
<g>
	<g>
		<line fill="none" stroke="#1A171B" x1="684.918" y1="1443.106" x2="1161.91" y2="1480.726"/>
		<g>
			<polygon fill="#1A171B" points="1160.066,1485.554 1169.066,1481.263 1160.85,1475.613 			"/>
		</g>
	</g>
</g>
<rect x="11.5" fill="none" width="1568" height="1902.5"/>
</svg>
