<?xml version="1.0" encoding="utf-8"?>
<!-- Generator: Adobe Illustrator 15.0.2, SVG Export Plug-In . SVG Version: 6.00 Build 0)  -->
<!DOCTYPE svg PUBLIC "-//W3C//DTD SVG 1.1//EN" "http://www.w3.org/Graphics/SVG/1.1/DTD/svg11.dtd">
<svg version="1.1" id="Ebene_1" xmlns="http://www.w3.org/2000/svg" xmlns:xlink="http://www.w3.org/1999/xlink" x="0px" y="0px"
	 width="1638px" height="1940px" viewBox="0 0 1638 1940" enable-background="new 0 0 1638 1940" xml:space="preserve">
<g id="graph1" transform="scale(1 1) rotate(0) translate(4 1936)">
	<title>genomeannotation_dag</title>
	<polygon fill="#FFFFFF" stroke="#FFFFFF" points="-4,8 -4,-1933 1635,-1933 1635,8 	"/>
	<title>p0</title>
	<ellipse stroke="#000000" cx="795" cy="-1525" rx="3.6" ry="3.6"/>
	<title>p1</title>
	<ellipse fill="none" stroke="#000000" cx="811" cy="-1439" rx="82.23" ry="19.092"/>
	<text transform="matrix(1 0 0 1 748.2793 -1433.9004)" font-family="'Verdana'" font-size="15">RunMakeBlastDB</text>
	<g id="edge2">
		<title>p0-&gt;p1</title>
		<path fill="none" stroke="#000000" d="M795-1524.305c0,9.263,0,36.239,0,56.987"/>
		<polygon stroke="#000000" points="798.5,-1467.219 795,-1458.305 791.5,-1467.219 		"/>
	</g>
	<title>p4</title>
	<ellipse fill="none" stroke="#000000" cx="627" cy="-1360" rx="3" ry="3.5"/>
	<title>p1-&gt;p4</title>
	<path fill="none" stroke="#000000" d="M764.545-1423.27c-17.3,6.189-36.989,13.64-54.545,21.27
		c-25.984,11.29-55.331,26.83-71.23,35.49"/>
	<polygon stroke="#000000" points="640.257,-1363.33 629.809,-1361.57 636.88,-1369.46 	"/>
	<title>p19</title>
	<title>p1-&gt;p19</title>
	<path fill="none" stroke="#000000" d="M783.59-1418.51c-7.918,37.606-18.573,88.168-25.591,121.5"/>
	<polygon stroke="#000000" points="763.254,-1306.561 756.999,-1298.01 756.556,-1308.601 	"/>
	<title>p50</title>
	<title>p1-&gt;p50</title>
	<path fill="none" stroke="#000000" d="M848.903-1419.908c19.886,13.244,41.86,28.474,61.466,43.393
		c32.07,24.411,67.549,55.562,89.219,75.106"/>
	<polygon stroke="#000000" points="996.481,-1309.72 1002.262,-1300.84 992.206,-1304.18 	"/>
	<title>p5</title>
	<ellipse fill="#79AAFF" stroke="#000000" cx="445" cy="-1281" rx="67.175" ry="19.092"/>
	<text transform="matrix(1 0 0 1 395.5483 -1275.9004)" font-family="'Verdana'" font-size="15">RunBlastProts</text>
	<g id="edge14">
		<title>p4-&gt;p5</title>
		<path fill="none" stroke="#000000" d="M624.141-1358.76c-14.923,6.479-85.028,36.91-132.982,57.72"/>
		<polygon stroke="#000000" points="492.452,-1297.78 481.885,-1297.01 489.665,-1304.2 		"/>
	</g>
	<title>p20</title>
	<ellipse fill="#B0D377" stroke="#000000" cx="718" cy="-1281" rx="63.848" ry="19.092"/>
	<text transform="matrix(1 0 0 1 670.4966 -1275.9004)" font-family="'Verdana'" font-size="15">RunBlastEST</text>
	<title>p51</title>
	<ellipse fill="#D9B7D4" stroke="#000000" cx="1023" cy="-1281" rx="73.039" ry="19.092"/>
	<text transform="matrix(1 0 0 1 966.7461 -1275.9004)" font-family="'Verdana'" font-size="15">RunBlastTrinity</text>
	<title>p2</title>
	<ellipse stroke="#000000" cx="445" cy="-1439" rx="3.6" ry="3.6"/>
	<title>p3</title>
	<ellipse fill="none" stroke="#000000" cx="445" cy="-1360" rx="3" ry="3.5"/>
	<g id="edge10">
		<title>p2-&gt;p3</title>
		<path fill="none" stroke="#000000" d="M445-1435.189c0,10.97,0,43.029,0,61.55"/>
		<polygon stroke="#000000" points="448.5,-1373.59 445,-1363.59 441.5,-1373.59 		"/>
	</g>
	<title>p3-&gt;p5</title>
	<path fill="none" stroke="#000000" d="M445-1356.189c0,8.22,0,28.27,0,45.6"/>
	<polygon stroke="#000000" points="448.5,-1310.28 445,-1300.28 441.5,-1310.28 	"/>
	<title>p6</title>
	<ellipse fill="none" stroke="#000000" cx="427" cy="-1187" rx="3" ry="3.5"/>
	<title>p5-&gt;p6</title>
	<path fill="none" stroke="#000000" d="M441.357-1261.98c-3.504,18.301-8.71,45.49-11.797,61.61"/>
	<polygon stroke="#000000" points="432.996,-1199.7 427.678,-1190.54 426.121,-1201.02 	"/>
	<title>p7</title>
	<ellipse fill="#79AAFF" stroke="#000000" cx="396" cy="-1093" rx="104.151" ry="19.092"/>
	<text transform="matrix(1 0 0 1 310.5737 -1087.9004)" font-family="'Verdana'" font-size="15">Blast2QueryTargetProts</text>
	<g id="edge18">
		<title>p6-&gt;p7</title>
		<path fill="none" stroke="#000000" d="M425.823-1183.43c-3.3,10-12.878,39.05-20.299,61.55"/>
		<polygon stroke="#000000" points="408.753,-1120.49 402.297,-1112.09 402.105,-1122.689 		"/>
	</g>
	<title>p8</title>
	<ellipse fill="none" stroke="#000000" cx="369" cy="-999" rx="3" ry="3.5"/>
	<title>p7-&gt;p8</title>
	<path fill="none" stroke="#000000" d="M379.599-1074.21c-3.886,5.51-7.507,11.79-9.599,18.21c-4.639,14.24-4.145,31.55-2.964,43.34
		"/>
	<polygon stroke="#000000" points="370.545,-1012.83 368.377,-1002.46 363.604,-1011.91 	"/>
	<title>p9</title>
	<ellipse fill="#79AAFF" stroke="#000000" cx="369" cy="-905" rx="85.769" ry="19.092"/>
	<text transform="matrix(1 0 0 1 299.5654 -899.9004)" font-family="'Verdana'" font-size="15">RunExonerateProts</text>
	<title>p8-&gt;p9</title>
	<path fill="none" stroke="#000000" d="M369-995.43c0,9.959,0,38.788,0,61.246"/>
	<polygon stroke="#000000" points="372.5,-934.093 369,-924.093 365.5,-934.093 	"/>
	<title>p10</title>
	<ellipse fill="#79AAFF" stroke="#000000" cx="369" cy="-811" rx="94.96" ry="19.092"/>
	<text transform="matrix(1 0 0 1 291.5654 -805.9004)" font-family="'Verdana'" font-size="15">Exonerate2HintsProts</text>
	<title>p9-&gt;p10</title>
	<path fill="none" stroke="#000000" d="M369-885.979c0,13.037,0,30.591,0,45.435"/>
	<polygon stroke="#000000" points="372.5,-840.317 369,-830.317 365.5,-840.317 	"/>
	<title>p11</title>
	<ellipse fill="none" stroke="#000000" cx="301" cy="-732" rx="3" ry="3.5"/>
	<title>p10-&gt;p11</title>
	<path fill="none" stroke="#000000" d="M323.288-794.237c-8.441,5.19-16.19,11.829-21.288,20.237
		c-5.14,8.479-5.103,19.795-3.938,28.545"/>
	<polygon stroke="#000000" points="301.552,-745.845 300.037,-735.359 294.682,-744.501 	"/>
	<title>p60</title>
	<ellipse fill="none" stroke="#000000" cx="480" cy="-732" rx="3" ry="3.5"/>
	<title>p10-&gt;p60</title>
	<path fill="none" stroke="#000000" d="M380.664-791.991c8.45,12.359,20.895,27.98,35.336,37.991
		c15.673,10.865,37.199,16.796,50.856,19.683"/>
	<polygon stroke="#000000" points="467.601,-737.739 476.792,-732.469 466.321,-730.857 	"/>
	<g id="edge30">
		<title>p11-&gt;p12</title>
		<path fill="none" stroke="#000000" d="M301-728.367c0,8.708,0,31.091,0,45.186"/>
		<polygon stroke="#000000" points="304.5,-682.926 301,-672.926 297.5,-682.926 		"/>
	</g>
	<title>p66</title>
	<ellipse fill="#E38501" stroke="#000000" cx="568" cy="-671" rx="63.139" ry="19.092"/>
	<text transform="matrix(1 0 0 1 519.8828 -666.9004)" font-family="'Verdana'" font-size="15">RunAugustus</text>
	<g id="edge130">
		<title>p60-&gt;p66</title>
		<path fill="none" stroke="#000000" d="M482.928-729.97c8.037,5.57,31.185,21.616,51.307,35.563"/>
		<polygon stroke="#000000" points="536.396,-697.166 542.621,-688.593 532.408,-691.413 		"/>
	</g>
	<title>p13</title>
	<ellipse fill="#CDDAF0" stroke="#000000" cx="124" cy="-905" rx="114.051" ry="19.092"/>
	<text transform="matrix(1 0 0 1 29.9653 -899.9004)" font-family="'Verdana'" font-size="15">RunGenomeThreaderProts</text>
	<title>p14</title>
	<ellipse fill="#CDDAF0" stroke="#000000" cx="124" cy="-811" rx="123.951" ry="19.092"/>
	<text transform="matrix(1 0 0 1 19.9653 -805.9004)" font-family="'Verdana'" font-size="15">GenomeThreader2HintsProts</text>
	<title>p13-&gt;p14</title>
	<path fill="none" stroke="#000000" d="M124-885.979c0,13.037,0,30.591,0,45.435"/>
	<polygon stroke="#000000" points="127.5,-840.317 124,-830.317 120.5,-840.317 	"/>
	<title>p15</title>
	<ellipse fill="none" stroke="#000000" cx="115" cy="-732" rx="3" ry="3.5"/>
	<title>p14-&gt;p15</title>
	<path fill="none" stroke="#000000" d="M119.152-791.913c-1.257,5.723-2.453,12.04-3.152,17.913
		c-1.121,9.427-1.361,20.125-1.325,28.365"/>
	<polygon stroke="#000000" points="118.176,-745.563 114.861,-735.501 111.178,-745.435 	"/>
	<title>p61</title>
	<ellipse fill="none" stroke="#000000" cx="412" cy="-732" rx="3" ry="3.5"/>
	<title>p14-&gt;p61</title>
	<path fill="none" stroke="#000000" d="M144.612-791.991C160.038-778.956,182.305-762.531,205-754
		c35.79,13.453,153.829,19.697,193.705,21.458"/>
	<polygon stroke="#000000" points="399.007,-736.032 408.852,-732.118 398.715,-729.039 	"/>
	<g id="edge38">
		<title>p15-&gt;p16</title>
		<path fill="none" stroke="#000000" d="M115-728.367c0,8.708,0,31.091,0,45.186"/>
		<polygon stroke="#000000" points="118.5,-682.926 115,-672.926 111.5,-682.926 		"/>
	</g>
	<g id="edge132">
		<title>p61-&gt;p66</title>
		<path fill="none" stroke="#000000" d="M414.977-730.836c12.908,5.047,65.18,25.487,105.071,41.086"/>
		<polygon stroke="#000000" points="521.338,-693.004 529.377,-686.104 518.789,-686.485 		"/>
	</g>
	<title>p17</title>
	<ellipse stroke="#000000" cx="675" cy="-1439" rx="3.6" ry="3.6"/>
	<title>p18</title>
	<ellipse fill="none" stroke="#000000" cx="680" cy="-1360" rx="3" ry="3.5"/>
	<g id="edge40">
		<title>p17-&gt;p18</title>
		<path fill="none" stroke="#000000" d="M675.241-1435.189c0.694,10.97,2.724,43.029,3.896,61.55"/>
		<polygon stroke="#000000" points="682.634,-1373.79 679.773,-1363.59 675.648,-1373.35 		"/>
	</g>
	<title>p18-&gt;p20</title>
	<path fill="none" stroke="#000000" d="M681.633-1356.61c3.907,8.13,14.113,29.341,22.721,47.24"/>
	<polygon stroke="#000000" points="707.742,-1310.4 708.922,-1299.87 701.433,-1307.37 	"/>
	<title>p21</title>
	<ellipse fill="none" stroke="#000000" cx="718" cy="-1187" rx="3" ry="3.5"/>
	<title>p20-&gt;p21</title>
	<path fill="none" stroke="#000000" d="M718-1261.98c0,18.12,0,44.961,0,61.131"/>
	<polygon stroke="#000000" points="721.5,-1200.54 718,-1190.54 714.5,-1200.54 	"/>
	<title>p22</title>
	<ellipse fill="#B0D377" stroke="#000000" cx="718" cy="-1093" rx="101.823" ry="19.092"/>
	<text transform="matrix(1 0 0 1 634.522 -1087.9004)" font-family="'Verdana'" font-size="15">Blast2QueryTargetEST</text>
	<g id="edge48">
		<title>p21-&gt;p22</title>
		<path fill="none" stroke="#000000" d="M718-1183.43c0,9.96,0,38.79,0,61.25"/>
		<polygon stroke="#000000" points="721.5,-1122.09 718,-1112.09 714.5,-1122.09 		"/>
	</g>
	<title>p23</title>
	<ellipse fill="none" stroke="#000000" cx="718" cy="-999" rx="3" ry="3.5"/>
	<title>p22-&gt;p23</title>
	<path fill="none" stroke="#000000" d="M718-1073.98c0,18.12,0,44.961,0,61.131"/>
	<polygon stroke="#000000" points="721.5,-1012.54 718,-1002.54 714.5,-1012.54 	"/>
	<title>p24</title>
	<ellipse fill="#B0D377" stroke="#000000" cx="718" cy="-905" rx="82.939" ry="19.092"/>
	<text transform="matrix(1 0 0 1 652.5137 -899.9004)" font-family="'Verdana'" font-size="15">RunExonerateEST</text>
	<title>p23-&gt;p24</title>
	<path fill="none" stroke="#000000" d="M718-995.43c0,9.959,0,38.788,0,61.246"/>
	<polygon stroke="#000000" points="721.5,-934.093 718,-924.093 714.5,-934.093 	"/>
	<title>p25</title>
	<ellipse fill="#B0D377" stroke="#000000" cx="718" cy="-811" rx="92.13" ry="19.092"/>
	<text transform="matrix(1 0 0 1 643.5137 -805.9004)" font-family="'Verdana'" font-size="15">Exonerate2HintsEST</text>
	<title>p24-&gt;p25</title>
	<path fill="none" stroke="#000000" d="M718-885.979c0,13.037,0,30.591,0,45.435"/>
	<polygon stroke="#000000" points="721.5,-840.317 718,-830.317 714.5,-840.317 	"/>
	<title>p26</title>
	<ellipse fill="none" stroke="#000000" cx="728" cy="-732" rx="3" ry="3.5"/>
	<title>p25-&gt;p26</title>
	<path fill="none" stroke="#000000" d="M720.421-791.876c1.803,14.247,4.223,33.365,5.839,46.127"/>
	<polygon stroke="#000000" points="729.771,-745.883 727.554,-735.521 722.826,-745.003 	"/>
	<title>p62</title>
	<ellipse fill="none" stroke="#000000" cx="586" cy="-732" rx="3" ry="3.5"/>
	<title>p25-&gt;p62</title>
	<path fill="none" stroke="#000000" d="M655.817-796.96C632.024-790.488,608.539-782.387,600-774
		c-7.625,7.49-11.097,19.236-12.678,28.404"/>
	<polygon stroke="#000000" points="590.79,-745.124 586.142,-735.604 583.839,-745.945 	"/>
	<g id="edge60">
		<title>p26-&gt;p27</title>
		<path fill="none" stroke="#000000" d="M728-728.367c0,8.708,0,31.091,0,45.186"/>
		<polygon stroke="#000000" points="731.5,-682.926 728,-672.926 724.5,-682.926 		"/>
	</g>
	<g id="edge134">
		<title>p62-&gt;p66</title>
		<path fill="none" stroke="#000000" d="M584.928-728.367c-1.686,5.713-5.108,17.314-8.438,28.598"/>
		<polygon stroke="#000000" points="579.821,-698.692 573.634,-690.092 573.107,-700.673 		"/>
	</g>
	<title>p28</title>
	<ellipse stroke="#000000" cx="891" cy="-1332" rx="3.6" ry="3.6"/>
	<title>p29</title>
	<ellipse fill="none" stroke="#000000" cx="891" cy="-1267" rx="3" ry="3.5"/>
	<g id="edge62">
		<title>p28-&gt;p29</title>
		<path fill="none" stroke="#000000" d="M891-1330.39c0,9.191,0,36.057,0,51.578"/>
		<polygon stroke="#000000" points="894.5,-1278.77 891,-1270.39 887.5,-1278.77 		"/>
	</g>
	<title>p30</title>
	<ellipse fill="#B89071" stroke="#000000" cx="891" cy="-1187" rx="82.939" ry="19.092"/>
	<text transform="matrix(1 0 0 1 829.9033 -1181.9004)" font-family="'Verdana'" font-size="15">RunRepeatMasker</text>
	<title>p29-&gt;p30</title>
	<path fill="none" stroke="#000000" d="M891-1264.805c0,7.806,0,30.399,0,48"/>
	<polygon stroke="#000000" points="894.5,-1216.09 891,-1206.09 887.5,-1216.09 	"/>
	<title>p31</title>
	<ellipse fill="none" stroke="#000000" cx="891" cy="-1093" rx="3" ry="3.5"/>
	<title>p30-&gt;p31</title>
	<path fill="none" stroke="#000000" d="M891-1167.98c0,18.12,0,44.961,0,61.131"/>
	<polygon stroke="#000000" points="894.5,-1106.54 891,-1096.54 887.5,-1106.54 	"/>
	<title>p32</title>
	<ellipse fill="#B89071" stroke="#000000" cx="897" cy="-999" rx="126.78" ry="19.092"/>
	<text transform="matrix(1 0 0 1 795.0376 -993.9004)" font-family="'Verdana'" font-size="15">RemoveHeaderRepeatMasker</text>
	<g id="edge68">
		<title>p31-&gt;p32</title>
		<path fill="none" stroke="#000000" d="M891.229-1089.43c0.636,9.96,2.476,38.79,3.908,61.25"/>
		<polygon stroke="#000000" points="898.637,-1028.3 895.781,-1018.09 891.651,-1027.85 		"/>
	</g>
	<title>p33</title>
	<ellipse fill="#B89071" stroke="#000000" cx="918" cy="-905" rx="89.803" ry="19.092"/>
	<text transform="matrix(1 0 0 1 846.2441 -899.9004)" font-family="'Verdana'" font-size="15">CleanRepeatMasker</text>
	<title>p32-&gt;p33</title>
	<path fill="none" stroke="#000000" d="M901.25-979.979c2.96,13.252,6.962,31.166,10.313,46.162"/>
	<polygon stroke="#000000" points="914.992,-934.517 913.757,-923.994 908.16,-932.99 	"/>
	<title>p34</title>
	<ellipse fill="#B89071" stroke="#000000" cx="924" cy="-811" rx="92.13" ry="19.092"/>
	<text transform="matrix(1 0 0 1 848.9033 -805.9004)" font-family="'Verdana'" font-size="15">RepeatMasker2Hints</text>
	<title>p33-&gt;p34</title>
	<path fill="none" stroke="#000000" d="M919.214-885.979c0.832,13.037,1.953,30.591,2.9,45.435"/>
	<polygon stroke="#000000" points="925.623,-840.519 922.767,-830.317 918.637,-840.073 	"/>
	<title>p36</title>
	<ellipse fill="none" stroke="#000000" cx="1104" cy="-732" rx="3" ry="3.5"/>
	<title>p34-&gt;p36</title>
	<path fill="none" stroke="#000000" d="M998.233-799.693c34.257,6.417,70.297,15.254,83.767,25.693
		c9.15,7.089,14.89,19.064,18.2,28.417"/>
	<polygon stroke="#000000" points="1103.64,-746.287 1103.17,-735.703 1096.939,-744.27 	"/>
	<title>p34-&gt;p35</title>
	<title>p63</title>
	<ellipse fill="none" stroke="#000000" cx="815" cy="-732" rx="3" ry="3.5"/>
	<title>p34-&gt;p63</title>
	<path fill="none" stroke="#000000" d="M886.148-793.475C875.642-787.886,864.515-781.249,855-774
		c-12,9.141-23.654,21.967-31.257,31.034"/>
	<polygon stroke="#000000" points="826.27,-740.525 817.258,-734.954 820.829,-744.929 	"/>
	<g id="edge80">
		<title>p36-&gt;p37</title>
		<path fill="none" stroke="#000000" d="M1104-728.367c0,8.708,0,31.091,0,45.186"/>
		<polygon stroke="#000000" points="1107.5,-682.926 1104,-672.926 1100.5,-682.926 		"/>
	</g>
	<g id="edge136">
		<title>p63-&gt;p66</title>
		<path fill="none" stroke="#000000" d="M811.877-731.229c-18.883,4.663-119.197,29.437-185.145,45.724"/>
		<polygon stroke="#000000" points="627.41,-682.067 616.863,-683.067 625.732,-688.863 		"/>
	</g>
	<title>p38</title>
	<ellipse stroke="#000000" cx="694" cy="-1848" rx="3.6" ry="3.6"/>
	<title>p39</title>
	<ellipse fill="none" stroke="#000000" cx="694" cy="-1802" rx="3" ry="3.5"/>
	<g id="edge82">
		<title>p38-&gt;p39</title>
		<path fill="none" stroke="#000000" d="M694-1844.39c0,6.08,0,18.68,0,28.57"/>
		<polygon stroke="#000000" points="697.5,-1815.72 694,-1805.72 690.5,-1815.72 		"/>
	</g>
	<title>p40</title>
	<title>p41</title>
	<ellipse fill="#C593BE" stroke="#000000" cx="696" cy="-1709" rx="70.918" ry="19.092"/>
	<text transform="matrix(1 0 0 1 642.0908 -1703.9004)" font-family="'Verdana'" font-size="15">RunTrimgalore</text>
	<title>p40-&gt;p41</title>
	<path fill="none" stroke="#000000" d="M694.051-1799.4c0.131,9,0.499,33.21,0.949,53.4c0.056,2.53,0.119,5.16,0.185,7.79"/>
	<polygon stroke="#000000" points="698.684,-1738.29 695.446,-1728.2 691.686,-1738.11 	"/>
	<title>p45</title>
	<ellipse fill="#C593BE" stroke="#000000" cx="754" cy="-1615" rx="51.827" ry="19.092"/>
	<text transform="matrix(1 0 0 1 718.0552 -1609.9004)" font-family="'Verdana'" font-size="15">RunHisat2</text>
	<title>p41-&gt;p45</title>
	<path fill="none" stroke="#000000" d="M704.06-1689.94c5.118,11.35,12.219,25.86,19.94,37.94c2.306,3.61,4.905,7.27,7.585,10.81"/>
	<polygon stroke="#000000" points="734.438,-1643.23 737.885,-1633.21 728.943,-1638.89 	"/>
	<title>p46</title>
	<ellipse fill="#C593BE" stroke="#000000" cx="631" cy="-1495" rx="56.777" ry="19.092"/>
	<text transform="matrix(1 0 0 1 586.5552 -1489.9004)" font-family="'Verdana'" font-size="15">Hisat2Hints</text>
	<title>p45-&gt;p46</title>
	<path fill="none" stroke="#000000" d="M728.73-1598.39c-8.502,6.03-17.828,13.15-25.73,20.39
		c-18.973,17.39-37.946,39.51-51.649,56.53"/>
	<polygon stroke="#000000" points="654.03,-1519.21 645.07,-1513.561 648.549,-1523.57 	"/>
	<title>p47</title>
	<ellipse fill="none" stroke="#000000" cx="882" cy="-1536" rx="3" ry="3.5"/>
	<title>p45-&gt;p47</title>
	<path fill="#9F4B93" stroke="#000000" d="M780.521-1598.63c27.68,17.08,69.801,43.08,89.951,55.52"/>
	<polygon stroke="#000000" points="872.506,-1545.97 879.177,-1537.74 868.829,-1540.02 	"/>
	<title>p42</title>
	<ellipse stroke="#000000" cx="829" cy="-1882" rx="3.6" ry="3.6"/>
	<title>p43</title>
	<ellipse fill="none" stroke="#000000" cx="829" cy="-1803" rx="82.939" ry="19.092"/>
	<text transform="matrix(1 0 0 1 764.8931 -1797.9004)" font-family="'Verdana'" font-size="15">RunMakeHisatDB</text>
	<title>p42-&gt;p43</title>
	<path fill="none" stroke="#000000" d="M829-1878.19c0,8.22,0,28.27,0,45.6"/>
	<polygon stroke="#000000" points="832.5,-1832.28 829,-1822.28 825.5,-1832.28 	"/>
	<title>p44</title>
	<ellipse fill="none" stroke="#000000" cx="826" cy="-1709" rx="3" ry="3.5"/>
	<title>p43-&gt;p44</title>
	<path fill="none" stroke="#000000" d="M828.393-1783.98c-0.577,18.12-1.435,44.96-1.95,61.13"/>
	<polygon stroke="#000000" points="829.93,-1722.42 826.113,-1712.54 822.934,-1722.64 	"/>
	<g id="edge94">
		<title>p44-&gt;p45</title>
		<path fill="none" stroke="#000000" d="M825.58-1705.3c-1.254,9.67-5.721,36.08-18.58,53.3c-4.196,5.62-9.501,10.7-15.124,15.17"/>
		<polygon stroke="#000000" points="793.645,-1633.79 783.502,-1630.73 789.521,-1639.45 		"/>
	</g>
	<title>p64</title>
	<ellipse fill="none" stroke="#000000" cx="556" cy="-1392" rx="3" ry="3.5"/>
	<title>p46-&gt;p64</title>
	<path fill="none" stroke="#000000" d="M597.427-1479.48c-9.073,5.62-18.116,12.78-24.427,21.48
		c-11.284,15.561-15.093,37.939-16.369,52.23"/>
	<polygon stroke="#000000" points="560.118,-1405.46 556.036,-1395.68 553.13,-1405.87 	"/>
	<title>p48</title>
	<ellipse fill="#D9B7D4" stroke="#000000" cx="1023" cy="-1439" rx="53.947" ry="19.092"/>
	<text transform="matrix(1 0 0 1 986.1357 -1433.9004)" font-family="'Verdana'" font-size="15">RunTrinity</text>
	<g id="edge102">
		<title>p47-&gt;p48</title>
		<path fill="none" stroke="#000000" d="M884.945-1533.97c13.29,9.14,68.609,47.2,105.06,72.27"/>
		<polygon stroke="#000000" points="992.122,-1464.49 998.377,-1455.939 988.154,-1458.72 		"/>
	</g>
	<g id="edge138">
		<title>p64-&gt;p66</title>
		<path fill="none" stroke="#000000" d="M555.801-1388.25c-0.506,9.86-1.801,37.35-1.801,60.25c0,0,0,0,0,596
			c0,10.645,2.05,22.076,4.582,32.133"/>
		<polygon stroke="#000000" points="562.025,-700.547 561.328,-689.976 555.28,-698.675 		"/>
	</g>
	<title>p49</title>
	<ellipse fill="none" stroke="#000000" cx="1023" cy="-1360" rx="3" ry="3.5"/>
	<title>p48-&gt;p49</title>
	<path fill="none" stroke="#000000" d="M1023-1419.88c0,14.25,0,33.37,0,46.13"/>
	<polygon stroke="#000000" points="1026.5,-1373.52 1023,-1363.52 1019.5,-1373.52 	"/>
	<title>p55</title>
	<ellipse fill="#D9B7D4" stroke="#000000" cx="1214" cy="-905" rx="92.13" ry="19.092"/>
	<text transform="matrix(1 0 0 1 1141.7637 -899.9004)" font-family="'Verdana'" font-size="15">RunExonerateTrinity</text>
	<title>p48-&gt;p55</title>
	<path fill="none" stroke="#000000" d="M1069.72-1429.37c56.55,13.021,144.28,38.24,144.28,69.37c0,0,0,0,0,361
		c0,21.691,0,46.197,0,64.748"/>
	<polygon stroke="#000000" points="1217.5,-934.084 1214,-924.084 1210.5,-934.084 	"/>
	<title>p49-&gt;p51</title>
	<path fill="none" stroke="#000000" d="M1023-1356.189c0,8.22,0,28.27,0,45.6"/>
	<polygon stroke="#000000" points="1026.5,-1310.28 1023,-1300.28 1019.5,-1310.28 	"/>
	<title>p56</title>
	<ellipse fill="#D9B7D4" stroke="#000000" cx="1288" cy="-811" rx="102.03" ry="19.092"/>
	<text transform="matrix(1 0 0 1 1204.7637 -805.9004)" font-family="'Verdana'" font-size="15">Exonerate2HintsTrinity</text>
	<title>p55-&gt;p56</title>
	<path fill="none" stroke="#000000" d="M1228.98-885.979c10.83,13.762,25.619,32.553,37.689,47.88"/>
	<polygon stroke="#000000" points="1269.61,-840.016 1273.05,-829.994 1264.11,-835.686 	"/>
	<title>p52</title>
	<ellipse fill="none" stroke="#000000" cx="1023" cy="-1187" rx="3" ry="3.5"/>
	<title>p51-&gt;p52</title>
	<path fill="none" stroke="#000000" d="M1023-1261.98c0,18.12,0,44.961,0,61.131"/>
	<polygon stroke="#000000" points="1026.5,-1200.54 1023,-1190.54 1019.5,-1200.54 	"/>
	<title>p53</title>
	<ellipse fill="#D9B7D4" stroke="#000000" cx="1023" cy="-1093" rx="111.222" ry="19.092"/>
	<text transform="matrix(1 0 0 1 932.7715 -1087.9004)" font-family="'Verdana'" font-size="15">BlastTrinity2QueryTarget</text>
	<g id="edge114">
		<title>p52-&gt;p53</title>
		<path fill="none" stroke="#000000" d="M1023-1183.43c0,9.96,0,38.79,0,61.25"/>
		<polygon stroke="#000000" points="1026.5,-1122.09 1023,-1112.09 1019.5,-1122.09 		"/>
	</g>
	<title>p54</title>
	<ellipse fill="none" stroke="#000000" cx="1046" cy="-999" rx="3" ry="3.5"/>
	<title>p53-&gt;p54</title>
	<path fill="none" stroke="#000000" d="M1020.92-1073.9c-0.64,11.24-0.41,25.62,3.08,37.9c1.5,5.27,8.5,16.64,14.2,25.4"/>
	<polygon stroke="#000000" points="1041.27,-1012.31 1043.9,-1002.05 1035.45,-1008.43 	"/>
	<title>p54-&gt;p55</title>
	<title>p56-&gt;p57</title>
	<title>p58</title>
	<ellipse fill="none" stroke="#000000" cx="1501" cy="-732" rx="3" ry="3.5"/>
	<title>p56-&gt;p58</title>
	<path fill="none" stroke="#000000" d="M1371.28-799.973c39.68,6.424,82.069,15.353,98.72,25.973
		c11.33,7.223,19.93,20.162,25.16,29.776"/>
	<polygon stroke="#000000" points="1498.3,-745.778 1499.61,-735.264 1492.03,-742.665 	"/>
	<title>p65</title>
	<ellipse fill="none" stroke="#000000" cx="1080" cy="-732" rx="3" ry="3.5"/>
	<title>p56-&gt;p65</title>
	<path fill="none" stroke="#000000" d="M1261.26-792.563c-8.199,5.812-17.189,12.341-25.26,18.563c-11,8.476-11.33,14.315-24,20
		c-46.42,20.829-65.38,7.188-118.86,18.48"/>
	<polygon stroke="#000000" points="1093.65,-732.046 1083.12,-733.204 1092.07,-738.866 	"/>
	<g id="edge128">
		<title>p58-&gt;p59</title>
		<path fill="none" stroke="#000000" d="M1501-728.367c0,8.708,0,31.091,0,45.186"/>
		<polygon stroke="#000000" points="1504.5,-682.926 1501,-672.926 1497.5,-682.926 		"/>
	</g>
	<g id="edge140">
		<title>p65-&gt;p66</title>
		<path fill="none" stroke="#000000" d="M1076.76-731.64C1050.27-728.691,866.256-708.15,717-690
			c-26.392,3.209-55.395,6.876-80.744,10.127"/>
		<polygon stroke="#000000" points="636.368,-676.359 626.004,-678.556 635.476,-683.302 		"/>
	</g>
	<title>p67</title>
	<ellipse fill="none" stroke="#000000" cx="706" cy="-577" rx="3" ry="3.5"/>
	<title>p66-&gt;p67</title>
	<path fill="none" stroke="#000000" d="M613.907-657.76C629.438-651.969,646.3-644.138,660-634
		c16.761,12.403,30.922,32.302,38.938,45.006"/>
	<polygon stroke="#000000" points="702.161,-590.426 704.311,-580.051 696.161,-586.821 	"/>
	<title>p69</title>
	<ellipse fill="#E38501" stroke="#000000" cx="306" cy="-313" rx="70.209" ry="19.092"/>
	<text transform="matrix(1 0 0 1 249.9609 -307.9004)" font-family="'Verdana'" font-size="15">Augustus2Gff3</text>
	<title>p66-&gt;p69</title>
	<path fill="none" stroke="#000000" d="M511.688-662.358C434.961-648.968,307-620.165,307-577c0,0,0,0,0,170
		c0,21.692-0.27,46.198-0.529,64.749"/>
	<polygon stroke="#000000" points="309.968,-342.03 306.322,-332.083 302.969,-342.133 	"/>
	<title>p72</title>
	<ellipse fill="#E38501" stroke="#000000" cx="568" cy="-577" rx="84.146" ry="19.092"/>
	<text transform="matrix(1 0 0 1 501.1069 -571.9004)" font-family="'Verdana'" font-size="15">Augustus2Proteins</text>
	<title>p66-&gt;p72</title>
	<path fill="none" stroke="#000000" d="M568-651.979c0,13.037,0,30.591,0,45.435"/>
	<polygon stroke="#000000" points="571.5,-606.317 568,-596.317 564.5,-606.317 	"/>
	<title>p70</title>
	<title>p69-&gt;p70</title>
	<path fill="none" stroke="#000000" d="M242.323-304.863C207.297-298.95,168.796-289.579,158-276
		c-9.802,12.329-7.804,31.357-4.888,43.99"/>
	<polygon stroke="#000000" points="156.509,-232.857 155.832,-222.284 149.768,-230.971 	"/>
	<title>p81</title>
	<ellipse fill="#DFD000" stroke="#000000" cx="666" cy="-219" rx="70.209" ry="19.092"/>
	<text transform="matrix(1 0 0 1 609.8345 -213.9004)" font-family="'Verdana'" font-size="15">RunAnnieBlast</text>
	<title>p69-&gt;p81</title>
	<path fill="none" stroke="#000000" d="M365.402-302.736C387.983-297.108,413.245-288.617,434-276c10.477,6.369,8.082,14.422,19,20
		c53.513,27.336,74.932,6.96,134,18c5.774,1.079,11.76,2.31,17.736,3.615"/>
	<polygon stroke="#000000" points="605.756,-237.743 614.744,-232.134 604.22,-230.914 	"/>
	<title>p85</title>
	<ellipse fill="#DFD000" stroke="#000000" cx="496" cy="-219" rx="82.024" ry="19.092"/>
	<text transform="matrix(1 0 0 1 431.6792 -213.9004)" font-family="'Verdana'" font-size="15">RunAnnieInterpro</text>
	<title>p69-&gt;p85</title>
	<path fill="none" stroke="#000000" d="M300.747-293.963C298.602-281.75,298.343-266.307,307-256c13.538,16.119,72.342,13.957,93,18
		c7.62,1.492,15.58,3.056,23.514,4.62"/>
	<polygon stroke="#000000" points="424.39,-236.775 433.523,-231.405 423.034,-229.907 	"/>
	<title>p86</title>
	<ellipse fill="#DFD000" stroke="#000000" cx="496" cy="-125" rx="92.839" ry="19.092"/>
	<text transform="matrix(1 0 0 1 423.5889 -119.9004)" font-family="'Verdana'" font-size="15">RunFunctionsToGFF</text>
	<title>p69-&gt;p86</title>
	<path fill="none" stroke="#000000" d="M293.738-293.992C279.946-269.957,261.929-228.302,282-200
		c16.784,23.667,85.186,44.944,140.201,58.738"/>
	<polygon stroke="#000000" points="423.079,-144.651 431.951,-138.86 421.404,-137.854 	"/>
	<title>p73</title>
	<title>p72-&gt;p73</title>
	<path fill="none" stroke="#000000" d="M568-557.712c0,15.75,0,37.637,0,51.739"/>
	<polygon stroke="#000000" points="571.5,-505.61 568,-495.61 564.5,-505.61 	"/>
	<title>p77</title>
	<ellipse fill="none" stroke="#000000" cx="698" cy="-492" rx="3" ry="3.5"/>
	<title>p72-&gt;p77</title>
	<path fill="none" stroke="#000000" d="M624.466-562.903C639.322-557.399,654.634-549.949,667-540
		c11.693,9.407,20.392,24.459,25.552,35.198"/>
	<polygon stroke="#000000" points="695.904,-505.874 696.736,-495.313 689.499,-503.05 	"/>
	<title>p82</title>
	<ellipse fill="none" stroke="#000000" cx="430" cy="-492" rx="3" ry="3.5"/>
	<title>p72-&gt;p82</title>
	<path fill="none" stroke="#000000" d="M499.754-565.876C470.94-559.705,441.971-551.029,433-540
		c-7.725,9.497-7.585,23.862-6.056,34.402"/>
	<polygon stroke="#000000" points="430.435,-505.997 428.991,-495.501 423.574,-504.607 	"/>
	<title>p81-&gt;p86</title>
	<path fill="none" stroke="#000000" d="M652.313-200.208C642.379-187.784,627.932-172.002,612-162
		c-13.071,8.205-28.121,14.74-42.958,19.889"/>
	<polygon stroke="#000000" points="569.939,-138.721 559.346,-138.923 567.753,-145.371 	"/>
	<title>p85-&gt;p86</title>
	<path fill="none" stroke="#000000" d="M496-199.979c0,13.037,0,30.591,0,45.435"/>
	<polygon stroke="#000000" points="499.5,-154.317 496,-144.317 492.5,-154.317 	"/>
	<title>p87</title>
	<title>p86-&gt;p87</title>
	<path fill="none" stroke="#000000" d="M496-105.876c0,14.247,0,33.364,0,46.126"/>
	<polygon stroke="#000000" points="499.5,-59.522 496,-49.522 492.5,-59.522 	"/>
	<title>p79</title>
	<ellipse fill="#DFD000" stroke="#000000" cx="701" cy="-407" rx="87.889" ry="19.092"/>
	<text transform="matrix(1 0 0 1 631.9932 -401.9004)" font-family="'Verdana'" font-size="15">RunBlastpFunAnno</text>
	<title>p77-&gt;p79</title>
	<path fill="none" stroke="#000000" d="M698.129-488.348c0.316,8.942,1.152,32.631,1.841,52.153"/>
	<polygon stroke="#000000" points="703.468,-436.299 700.323,-426.182 696.472,-436.052 	"/>
	<title>p83</title>
	<ellipse fill="#DFD000" stroke="#000000" cx="454" cy="-407" rx="75.159" ry="19.092"/>
	<text transform="matrix(1 0 0 1 394.3481 -401.9004)" font-family="'Verdana'" font-size="15">RunInterproscan</text>
	<title>p82-&gt;p83</title>
	<path fill="none" stroke="#000000" d="M431.031-488.348c2.537,8.983,9.274,32.85,14.802,52.424"/>
	<polygon stroke="#000000" points="449.235,-436.756 448.584,-426.182 442.498,-434.854 	"/>
	<title>p75</title>
	<ellipse stroke="#000000" cx="911" cy="-665" rx="3.6" ry="3.6"/>
	<title>p76</title>
	<ellipse fill="#DFD000" stroke="#000000" cx="911" cy="-573" rx="118.794" ry="19.092"/>
	<text transform="matrix(1 0 0 1 812.8311 -568.9004)" font-family="'Verdana'" font-size="15">RunMakeBlastDBFunAnno</text>
	<title>p75-&gt;p76</title>
	<path fill="none" stroke="#000000" d="M911-660.961c0,10.328,0,38.443,0,60.52"/>
	<polygon stroke="#000000" points="914.5,-604.192 911,-594.192 907.5,-604.192 	"/>
	<title>p78</title>
	<ellipse fill="none" stroke="#000000" cx="880.741" cy="-477.942" rx="3" ry="3.5"/>
	<title>p76-&gt;p78</title>
	<polygon stroke="#000000" points="884.823,-492.219 880.741,-482.442 877.835,-492.63 	"/>
	<g id="edge174">
		<title>p78-&gt;p79</title>
		<path fill="none" stroke="#000000" d="M878.741-474.442c-5.604,8.39-22.39,31.977-42.009,44.938
			c-11.614,7.673-25.004,13.957-38.251,19.026"/>
		<polygon stroke="#000000" points="799.482,-407.119 788.889,-407 797.097,-413.699 		"/>
	</g>
	<title>p80</title>
	<ellipse fill="none" stroke="#000000" cx="701" cy="-313" rx="3" ry="3.5"/>
	<title>p79-&gt;p80</title>
	<path fill="none" stroke="#000000" d="M701-387.979c0,18.118,0,44.957,0,61.129"/>
	<polygon stroke="#000000" points="704.5,-326.538 701,-316.538 697.5,-326.538 	"/>
	<title>p80-&gt;p81</title>
	<path fill="none" stroke="#000000" d="M699.671-309.43c-3.742,10.049-14.637,39.311-23.031,61.854"/>
	<polygon stroke="#000000" points="679.879,-246.243 673.109,-238.093 673.319,-248.686 	"/>
	<title>p84</title>
	<ellipse fill="none" stroke="#000000" cx="523" cy="-313" rx="3" ry="3.5"/>
	<title>p83-&gt;p84</title>
	<path fill="none" stroke="#000000" d="M467.963-387.979c14.084,19.188,35.348,48.155,46.888,63.877"/>
	<polygon stroke="#000000" points="517.761,-326.052 520.857,-315.92 512.118,-321.91 	"/>
	<title>p84-&gt;p85</title>
	<path fill="none" stroke="#000000" d="M526.059-311.533C538.632-305.299,584.97-280.221,570-256
		c-3.998,6.468-9.506,11.843-15.73,16.301"/>
	<polygon stroke="#000000" points="555.751,-236.498 545.415,-234.172 552.045,-242.436 	"/>
	<g id="edge10_1_">
		<title>p2-&gt;p3</title>
		<path fill="none" stroke="#000000" d="M124-996.697c0,10.97,0,43.029,0,61.55"/>
		<polygon stroke="#000000" points="127.5,-935.098 124,-925.098 120.5,-935.098 		"/>
	</g>
	<text transform="matrix(1 0 0 1 1418.3838 -646.9082)" font-family="'ArialMT'" font-size="17">Hints_trinity_mapped.gff</text>
	<text transform="matrix(1 0 0 1 1026.5 -647.9785)" font-family="'ArialMT'" font-size="17">Hints_repeatmasker.gff</text>
	<text transform="matrix(1 0 0 1 666 -646.9082)" font-family="'ArialMT'" font-size="17">Hints_ESTs_exonerate.gff</text>
	<text transform="matrix(1 0 0 1 216.8999 -646.9082)" font-family="'ArialMT'" font-size="17">Hints_proteins_exonerate.gff</text>
	<text transform="matrix(1 0 0 1 26.9653 -646.9082)" font-family="'ArialMT'" font-size="17">Hints_proteins_gth.gff</text>
	<rect x="21.244" y="-668.686" fill="none" stroke="#9F0E51" stroke-width="3" width="177" height="31"/>
	<rect x="210.837" y="-668.686" fill="none" stroke="#9F0E51" stroke-width="3" width="229" height="31"/>
	<rect x="659.614" y="-668.686" fill="none" stroke="#9F0E51" stroke-width="3" width="211" height="31"/>
	<rect x="1019.499" y="-668.686" fill="none" stroke="#9F0E51" stroke-width="3" width="187.001" height="31"/>
	<rect x="1411.708" y="-668.686" fill="none" stroke="#9F0E51" stroke-width="3" width="197" height="30.999"/>
	<text transform="matrix(1 0 0 1 114.4766 -196.7031)" font-family="'ArialMT'" font-size="17">Augustus.gff3</text>
	<rect x="107.428" y="-218.015" fill="none" stroke="#9F0E51" stroke-width="3" width="117" height="31"/>
	<text transform="matrix(1 0 0 1 487.1914 -470.5078)" font-family="'ArialMT'" font-size="17">Augustus_proteins.fa</text>
	<rect x="478.96" y="-490.666" fill="none" stroke="#9F0E51" stroke-width="3" width="175" height="31"/>
	<text transform="matrix(1 0 0 1 709.7686 -489.5078)" font-family="'ArialMT'" font-size="17">Augustus_out.gff</text>
	<rect x="703.059" y="-510.945" fill="none" stroke="#9F0E51" stroke-width="3" width="142" height="31"/>
	<path fill="none" stroke="#000000" d="M707.599-573.5c2.537,8.983,9.274,32.85,14.802,52.424"/>
	<polygon stroke="#000000" points="725.235,-525.756 724.584,-515.182 718.498,-523.854 	"/>
	<text transform="matrix(1 0 0 1 404.5488 -23.7324)" font-family="'ArialMT'" font-size="17">Augustus_withFunctions.gff3</text>
	<rect x="397.384" y="-44.908" fill="none" stroke="#9F0E51" stroke-width="3" width="230" height="31"/>
	<ellipse stroke="#000000" cx="124" cy="-1000.05" rx="3.6" ry="3.6"/>
	<path fill="none" stroke="#000000" d="M881.329-555.016c0,10.328,0,38.443,0,60.52"/>
	<text transform="matrix(1 0 0 1 736.4141 -1535.9697)" fill="#1D0316" font-family="'CourierNewPS-BoldMT'" font-size="21">--genome</text>
	<text transform="matrix(1 0 0 1 394.6641 -1451.0918)" fill="#1D0316" font-family="'CourierNewPS-BoldMT'" font-size="21">--prots</text>
	<text transform="matrix(1 0 0 1 626.8345 -1451.0918)" fill="#1D0316" font-family="'CourierNewPS-BoldMT'" font-size="21">--ESTs</text>
	<text transform="matrix(1 0 0 1 75.6895 -1012.8496)" fill="#1D0316" font-family="'CourierNewPS-BoldMT'" font-size="21">--prots</text>
	<text transform="matrix(1 0 0 1 643.2559 -1860.062)" fill="#1D0316" font-family="'CourierNewPS-BoldMT'" font-size="21">--reads</text>
	<text transform="matrix(1 0 0 1 770.2192 -1894.439)" fill="#1D0316" font-family="'CourierNewPS-BoldMT'" font-size="21">--genome</text>
	<text transform="matrix(1 0 0 1 829 -1342.9668)" fill="#1D0316" font-family="'CourierNewPS-BoldMT'" font-size="21">--genome</text>
	<text transform="matrix(1 0 0 1 856.5078 -677.9258)" fill="#1D0316" font-family="'CourierNewPS-BoldMT'" font-size="21">--uniprot</text>
	<ellipse fill="#CDDAF0" stroke="#000000" cx="1357.307" cy="-1800.201" rx="17.307" ry="16.5"/>
	<text transform="matrix(1 0 0 1 1393.998 -1795.5288)" fill="#1A171B" font-family="'CourierNewPS-BoldMT'" font-size="21">--gth true</text>
	<ellipse fill="#B89071" stroke="#000000" cx="1357.307" cy="-1459.625" rx="17.307" ry="16.5"/>
	<ellipse fill="#E38501" stroke="#000000" cx="1357.307" cy="-1365.29" rx="17.307" ry="16.5"/>
	<ellipse fill="#D9B7D4" stroke="#000000" cx="1357.307" cy="-1546.021" rx="17.307" ry="16.5"/>
	<ellipse fill="#DFD000" stroke="#000000" cx="1357.307" cy="-1309.083" rx="17.307" ry="16.5"/>
	<text transform="matrix(1 0 0 1 1393.998 -1454.5254)" fill="#1A171B" font-family="'CourierNewPS-BoldMT'" font-size="21">--RM true</text>
	<text transform="matrix(1 0 0 1 1393.998 -1541.9673)" fill="#1A171B" font-family="'CourierNewPS-BoldMT'" font-size="21">--trinity true</text>
	<text transform="matrix(1 0 0 1 1393.998 -1359.0527)" fill="#1A171B" font-family="'CourierNewPS-BoldMT'" font-size="21">--augustus true</text>
	<text transform="matrix(1 0 0 1 1393.998 -1303.0439)" fill="#1A171B" font-family="'CourierNewPS-BoldMT'" font-size="21">--funAnnot true</text>
	
		<text transform="matrix(-4.371139e-008 1 -1 -4.371139e-008 455.769 -1418.5098)" fill="#697989" font-family="'CourierNewPS-BoldMT'" font-size="17">--nblast</text>
	
		<text transform="matrix(0.3954 0.9185 -0.9185 0.3954 682.9995 -1380.8887)" fill="#697989" font-family="'CourierNewPS-BoldMT'" font-size="17">--nblast</text>
	
		<text transform="matrix(-4.371139e-008 1 -1 -4.371139e-008 1035.4502 -1400.7749)" fill="#697989" font-family="'CourierNewPS-BoldMT'" font-size="17">--nblast</text>
	
		<text transform="matrix(-4.371139e-008 1 -1 -4.371139e-008 379.8257 -1053.9189)" fill="#697989" font-family="'CourierNewPS-BoldMT'" font-size="17">--nexonerate</text>
	
		<text transform="matrix(-4.371139e-008 1 -1 -4.371139e-008 728.2983 -1053.9189)" fill="#697989" font-family="'CourierNewPS-BoldMT'" font-size="17">--nexonerate</text>
	
		<text transform="matrix(-4.371139e-008 1 -1 -4.371139e-008 903.25 -1317.9185)" fill="#697989" font-family="'CourierNewPS-BoldMT'" font-size="17">--nrepeats</text>
	
		<text transform="matrix(0.7587 0.6515 -0.6515 0.7587 1056.8906 -1012.8501)" fill="#697989" font-family="'CourierNewPS-BoldMT'" font-size="17">--nexonerate</text>
	<path fill="none" stroke="#000000" d="M1049-997.208c15.563,12.6,56.231,45.472,90.525,73.213"/>
	<polygon stroke="#000000" points="1141.168,-926.823 1148.064,-918.778 1137.654,-920.77 	"/>
	<ellipse fill="#79AAFF" stroke="#000000" cx="1357.307" cy="-1852.456" rx="17.307" ry="16.5"/>
	<text transform="matrix(1 0 0 1 1393.998 -1847.7837)" fill="#1A171B" font-family="'CourierNewPS-BoldMT'" font-size="21">--prots</text>
	<ellipse fill="#B0D377" stroke="#1A171B" cx="1357.307" cy="-1704.04" rx="17.307" ry="16.5"/>
	<ellipse fill="#B26FA9" stroke="#000000" cx="1357.307" cy="-1601.401" rx="17.307" ry="16.5"/>
	<text transform="matrix(1 0 0 1 1393.998 -1698.9404)" fill="#1A171B" font-family="'CourierNewPS-BoldMT'" font-size="21">--ESTs</text>
	<text transform="matrix(1 0 0 1 1393.998 -1597.3467)" fill="#1A171B" font-family="'CourierNewPS-BoldMT'" font-size="21">--reads</text>
	
		<text transform="matrix(0.2489 0.9685 -0.9685 0.2489 431.6792 -535.7373)" fill="#697989" font-family="'CourierNewPS-BoldMT'" font-size="17">--ninterpro</text>
	
		<text transform="matrix(-4.371139e-008 1 -1 -4.371139e-008 677.8784 -513.9971)" fill="#697989" font-family="'CourierNewPS-BoldMT'" font-size="17">--nblast</text>
</g>
</svg>
